<mxfile host="app.diagrams.net" modified="2022-01-31T06:06:01.155Z" agent="5.0 (Windows NT 10.0; Win64; x64) AppleWebKit/537.36 (KHTML, like Gecko) Chrome/97.0.4692.99 Safari/537.36" etag="0l-zq3ltgwf3bFgu5Qzw" version="16.4.5" type="github">
  <diagram id="H0Jvm50cED_hEzultajU" name="Page-1">
    <mxGraphModel dx="1422" dy="786" grid="1" gridSize="10" guides="1" tooltips="1" connect="1" arrows="1" fold="1" page="1" pageScale="1" pageWidth="850" pageHeight="1100" math="0" shadow="0">
      <root>
        <mxCell id="0" />
        <mxCell id="1" parent="0" />
        <mxCell id="QBnIUNVr5WJXTPOXXDId-1" value="CSE681.JSON.DOMs" style="shape=folder;fontStyle=1;spacingTop=10;tabWidth=40;tabHeight=14;tabPosition=left;html=1;" vertex="1" parent="1">
          <mxGeometry x="280" y="110" width="160" height="50" as="geometry" />
        </mxCell>
        <mxCell id="QBnIUNVr5WJXTPOXXDId-12" style="edgeStyle=orthogonalEdgeStyle;rounded=0;orthogonalLoop=1;jettySize=auto;html=1;exitX=0;exitY=0;exitDx=60;exitDy=14;exitPerimeter=0;entryX=0.75;entryY=1;entryDx=0;entryDy=0;entryPerimeter=0;" edge="1" parent="1" source="QBnIUNVr5WJXTPOXXDId-2" target="QBnIUNVr5WJXTPOXXDId-1">
          <mxGeometry relative="1" as="geometry">
            <Array as="points">
              <mxPoint x="380" y="210" />
              <mxPoint x="400" y="210" />
            </Array>
          </mxGeometry>
        </mxCell>
        <mxCell id="QBnIUNVr5WJXTPOXXDId-2" value="CSE681.JSON.Parser" style="shape=folder;fontStyle=1;spacingTop=10;tabWidth=40;tabHeight=14;tabPosition=left;html=1;" vertex="1" parent="1">
          <mxGeometry x="280" y="230" width="160" height="50" as="geometry" />
        </mxCell>
        <mxCell id="QBnIUNVr5WJXTPOXXDId-11" style="edgeStyle=orthogonalEdgeStyle;rounded=0;orthogonalLoop=1;jettySize=auto;html=1;exitX=0;exitY=0;exitDx=60;exitDy=14;exitPerimeter=0;entryX=0;entryY=0;entryDx=160;entryDy=41;entryPerimeter=0;" edge="1" parent="1" source="QBnIUNVr5WJXTPOXXDId-3" target="QBnIUNVr5WJXTPOXXDId-1">
          <mxGeometry relative="1" as="geometry">
            <mxPoint x="550" y="140" as="targetPoint" />
            <Array as="points">
              <mxPoint x="540" y="151" />
            </Array>
          </mxGeometry>
        </mxCell>
        <mxCell id="QBnIUNVr5WJXTPOXXDId-3" value="CSE681.JSON.PrettyPrint" style="shape=folder;fontStyle=1;spacingTop=10;tabWidth=40;tabHeight=14;tabPosition=left;html=1;" vertex="1" parent="1">
          <mxGeometry x="480" y="230" width="160" height="50" as="geometry" />
        </mxCell>
        <mxCell id="QBnIUNVr5WJXTPOXXDId-6" style="edgeStyle=orthogonalEdgeStyle;rounded=0;orthogonalLoop=1;jettySize=auto;html=1;exitX=0;exitY=0;exitDx=60;exitDy=14;exitPerimeter=0;entryX=0;entryY=0;entryDx=0;entryDy=41;entryPerimeter=0;" edge="1" parent="1" source="QBnIUNVr5WJXTPOXXDId-4" target="QBnIUNVr5WJXTPOXXDId-1">
          <mxGeometry relative="1" as="geometry">
            <Array as="points">
              <mxPoint x="220" y="151" />
            </Array>
          </mxGeometry>
        </mxCell>
        <mxCell id="QBnIUNVr5WJXTPOXXDId-4" value="CSE681.JSON.Search" style="shape=folder;fontStyle=1;spacingTop=10;tabWidth=40;tabHeight=14;tabPosition=left;html=1;" vertex="1" parent="1">
          <mxGeometry x="80" y="230" width="160" height="50" as="geometry" />
        </mxCell>
        <mxCell id="QBnIUNVr5WJXTPOXXDId-7" style="edgeStyle=orthogonalEdgeStyle;rounded=0;orthogonalLoop=1;jettySize=auto;html=1;exitX=0;exitY=0;exitDx=60;exitDy=14;exitPerimeter=0;entryX=0.25;entryY=1;entryDx=0;entryDy=0;entryPerimeter=0;" edge="1" parent="1" source="QBnIUNVr5WJXTPOXXDId-5" target="QBnIUNVr5WJXTPOXXDId-1">
          <mxGeometry relative="1" as="geometry">
            <mxPoint x="240" y="230" as="targetPoint" />
            <Array as="points">
              <mxPoint x="340" y="320" />
              <mxPoint x="260" y="320" />
              <mxPoint x="260" y="200" />
              <mxPoint x="320" y="200" />
            </Array>
          </mxGeometry>
        </mxCell>
        <mxCell id="QBnIUNVr5WJXTPOXXDId-8" style="edgeStyle=orthogonalEdgeStyle;rounded=0;orthogonalLoop=1;jettySize=auto;html=1;exitX=0;exitY=0;exitDx=60;exitDy=14;exitPerimeter=0;entryX=0.5;entryY=1;entryDx=0;entryDy=0;entryPerimeter=0;" edge="1" parent="1" source="QBnIUNVr5WJXTPOXXDId-5" target="QBnIUNVr5WJXTPOXXDId-2">
          <mxGeometry relative="1" as="geometry">
            <Array as="points">
              <mxPoint x="340" y="320" />
              <mxPoint x="360" y="320" />
            </Array>
          </mxGeometry>
        </mxCell>
        <mxCell id="QBnIUNVr5WJXTPOXXDId-9" style="edgeStyle=orthogonalEdgeStyle;rounded=0;orthogonalLoop=1;jettySize=auto;html=1;exitX=0;exitY=0;exitDx=80;exitDy=32;exitPerimeter=0;entryX=0.25;entryY=1;entryDx=0;entryDy=0;entryPerimeter=0;" edge="1" parent="1" source="QBnIUNVr5WJXTPOXXDId-5" target="QBnIUNVr5WJXTPOXXDId-3">
          <mxGeometry relative="1" as="geometry">
            <mxPoint x="490" y="440" as="targetPoint" />
          </mxGeometry>
        </mxCell>
        <mxCell id="QBnIUNVr5WJXTPOXXDId-10" style="edgeStyle=orthogonalEdgeStyle;rounded=0;orthogonalLoop=1;jettySize=auto;html=1;exitX=0;exitY=0;exitDx=0;exitDy=32;exitPerimeter=0;entryX=0.75;entryY=1;entryDx=0;entryDy=0;entryPerimeter=0;" edge="1" parent="1" source="QBnIUNVr5WJXTPOXXDId-5" target="QBnIUNVr5WJXTPOXXDId-4">
          <mxGeometry relative="1" as="geometry" />
        </mxCell>
        <mxCell id="QBnIUNVr5WJXTPOXXDId-5" value="CSE681.GUI.Project1" style="shape=folder;fontStyle=1;spacingTop=10;tabWidth=40;tabHeight=14;tabPosition=left;html=1;" vertex="1" parent="1">
          <mxGeometry x="280" y="350" width="160" height="50" as="geometry" />
        </mxCell>
      </root>
    </mxGraphModel>
  </diagram>
</mxfile>
